<svg width="48" height="48" viewBox="0 0 48 48" fill="none" xmlns="http://www.w3.org/2000/svg">
<path d="M0 10C0 4.47715 4.47715 0 10 0H38C43.5229 0 48 4.47715 48 10V38C48 43.5229 43.5228 48 38 48H10C4.47715 48 0 43.5228 0 38V10Z" fill="#F3F4F6"/>
<path d="M23.5251 14.2949C23.5689 14.2064 23.6366 14.1318 23.7205 14.0797C23.8045 14.0276 23.9013 14 24.0001 14C24.0989 14 24.1957 14.0276 24.2796 14.0797C24.3636 14.1318 24.4313 14.2064 24.4751 14.2949L26.7851 18.9739C26.9373 19.2819 27.1619 19.5483 27.4397 19.7503C27.7175 19.9524 28.0402 20.084 28.3801 20.1339L33.5461 20.8899C33.644 20.9041 33.7359 20.9454 33.8116 21.0091C33.8872 21.0728 33.9435 21.1564 33.9741 21.2505C34.0047 21.3446 34.0084 21.4453 33.9847 21.5413C33.961 21.6374 33.9109 21.7248 33.8401 21.7939L30.1041 25.4319C29.8577 25.672 29.6734 25.9684 29.5669 26.2955C29.4605 26.6227 29.4352 26.9708 29.4931 27.3099L30.3751 32.4499C30.3924 32.5477 30.3818 32.6485 30.3446 32.7406C30.3074 32.8327 30.245 32.9125 30.1646 32.9709C30.0842 33.0293 29.9891 33.0639 29.89 33.0708C29.7908 33.0777 29.6918 33.0566 29.6041 33.0099L24.9861 30.5819C24.6818 30.4221 24.3433 30.3386 23.9996 30.3386C23.6559 30.3386 23.3174 30.4221 23.0131 30.5819L18.3961 33.0099C18.3084 33.0563 18.2095 33.0772 18.1105 33.0701C18.0116 33.0631 17.9166 33.0285 17.8364 32.9701C17.7562 32.9118 17.6939 32.8321 17.6567 32.7401C17.6196 32.6482 17.6089 32.5476 17.6261 32.4499L18.5071 27.3109C18.5653 26.9716 18.5401 26.6233 18.4336 26.2959C18.3272 25.9686 18.1427 25.672 17.8961 25.4319L14.1601 21.7949C14.0887 21.7259 14.0381 21.6383 14.0141 21.542C13.99 21.4456 13.9935 21.3445 14.0242 21.2501C14.0548 21.1557 14.1114 21.0717 14.1874 21.0079C14.2634 20.944 14.3558 20.9028 14.4541 20.8889L19.6191 20.1339C19.9593 20.0844 20.2825 19.953 20.5607 19.7509C20.8389 19.5488 21.0638 19.2822 21.2161 18.9739L23.5251 14.2949Z" stroke="#364153" stroke-width="2" stroke-linecap="round" stroke-linejoin="round"/>
</svg>
