<svg width="52" height="52" viewBox="0 0 52 52" fill="none" xmlns="http://www.w3.org/2000/svg">
<path d="M43.3497 0.969849H25.0007C25.0007 5.5441 28.7039 9.2464 33.2761 9.2464H36.6521V12.5131C36.6521 17.0874 40.3548 20.7901 44.9291 20.7901V2.54877C44.9286 2.13008 44.7621 1.72866 44.466 1.43264C44.1699 1.13661 43.7684 0.970171 43.3497 0.969849V0.969849Z" fill="#2684FF"/>
<path d="M34.2572 10.1179H15.9082C15.9082 14.6922 19.6093 18.3937 24.1835 18.3937H27.5592V21.6612C27.5592 26.2355 31.2619 29.9386 35.8361 29.9386V11.6973C35.8358 11.2786 35.6694 10.8771 35.3733 10.581C35.0773 10.2849 34.6759 10.1184 34.2572 10.1179V10.1179Z" fill="url(#paint0_linear_3534_211)"/>
<path d="M25.1644 19.2649H6.81372C6.81372 23.8391 10.5164 27.5419 15.0903 27.5419H18.4667V30.8098C18.4667 35.3824 22.169 39.0852 26.7433 39.0852V20.8442C26.743 20.4255 26.5765 20.0241 26.2805 19.728C25.9845 19.4319 25.583 19.2653 25.1644 19.2649V19.2649Z" fill="url(#paint1_linear_3534_211)"/>
<path d="M18.6902 41.1357H20.0855V48.0349C20.0855 49.8556 19.2554 51.1253 17.3283 51.1253C16.6051 51.1253 16.0383 51.0046 15.6494 50.8681V49.546C16.0748 49.7174 16.5872 49.8032 17.0999 49.8032C18.2839 49.8032 18.6902 49.1177 18.6902 48.121V41.1357ZM22.6485 40.6027C23.1962 40.6027 23.5851 40.9293 23.5851 41.512C23.5851 42.0784 23.1962 42.4229 22.6485 42.4229C22.1012 42.4229 21.7124 42.0959 21.7124 41.512C21.7124 40.9472 22.1012 40.6027 22.6485 40.6027ZM21.9598 43.5037H23.3027V51.057H21.9598V43.5037ZM26.6243 51.057H25.3172V43.5037H26.6247V44.8259C27.085 43.9324 27.8627 43.2977 29.3815 43.3835V44.6544C27.6677 44.4829 26.6247 44.9799 26.6247 46.5941L26.6243 51.057ZM35.657 49.7C35.1617 50.6966 34.2251 51.2114 33.0221 51.2114C30.956 51.2114 29.913 49.511 29.913 47.2796C29.913 45.1513 31.008 43.3497 33.1825 43.3497C34.3125 43.3497 35.1966 43.8466 35.657 44.8259V43.5037H36.9998V51.057H35.657V49.7ZM33.3764 50.0096C34.5778 50.0096 35.6379 49.2717 35.6379 47.5892V46.9891C35.6379 45.3069 34.6668 44.5687 33.5173 44.5687C32.016 44.5687 31.2379 45.5292 31.2379 47.2796C31.2558 49.0998 31.9986 50.0096 33.3764 50.0096V50.0096Z" fill="#253858"/>
<defs>
<linearGradient id="paint0_linear_3534_211" x1="35.4546" y1="10.1385" x2="27.6473" y2="18.1888" gradientUnits="userSpaceOnUse">
<stop offset="0.176" stop-color="#0052CC"/>
<stop offset="1" stop-color="#2684FF"/>
</linearGradient>
<linearGradient id="paint1_linear_3534_211" x1="26.8898" y1="19.3355" x2="17.8627" y2="28.118" gradientUnits="userSpaceOnUse">
<stop offset="0.176" stop-color="#0052CC"/>
<stop offset="1" stop-color="#2684FF"/>
</linearGradient>
</defs>
</svg>
