<svg width="381" height="127" viewBox="0 0 381 127" fill="none" xmlns="http://www.w3.org/2000/svg">
<g clip-path="url(#clip0_3362_249)">
<path d="M22.1614 22.3029L45.6745 8.69574C48.1419 7.24432 50.3191 7.06289 52.2059 8.15146C54.1654 9.24003 55.1451 11.2357 55.1451 14.1386V66.39C55.1451 68.2769 54.6734 70.3089 53.7299 72.486C52.8591 74.6632 51.6979 76.6952 50.2465 78.582C48.8677 80.3963 47.3437 81.7752 45.6745 82.7186L60.8057 74.01V84.8957L22.1614 107.211C19.6214 108.663 17.4079 108.844 15.5211 107.756C13.6342 106.667 12.6908 104.671 12.6908 101.769V38.6315C12.6908 36.672 13.1262 34.64 13.9971 32.5355C14.8679 30.3583 16.0291 28.3626 17.4805 26.5483C18.9319 24.6615 20.4922 23.2463 22.1614 22.3029ZM45.6745 82.7186V19.5815L22.1614 33.1886V96.3257L45.6745 82.7186ZM60.8057 74.01L45.6745 82.7186L36.2039 77.2757L51.3351 68.5672L60.8057 74.01ZM45.6745 82.7186L22.1614 96.3257L12.6908 90.8829L36.2039 77.2757L45.6745 82.7186ZM45.6745 19.5815V82.7186L36.2039 77.2757V14.1386L45.6745 19.5815ZM52.3148 8.15146C50.3554 7.06289 48.1419 7.24432 45.6745 8.69574L22.1614 22.3029C20.4922 23.2463 18.9319 24.6615 17.4805 26.5483C16.0291 28.3626 14.8679 30.3583 13.9971 32.5355C13.1262 34.64 12.6908 36.672 12.6908 38.6315V101.769C12.6908 104.671 13.6342 106.667 15.5211 107.756L6.05051 102.313C4.16365 101.224 3.22022 99.2286 3.22022 96.3257V33.1886C3.22022 31.2292 3.65565 29.1972 4.52651 27.0926C5.39737 24.9155 6.55851 22.9197 8.00994 21.1055C9.46137 19.2186 11.0217 17.8035 12.6908 16.86L36.2039 3.25289C38.7439 1.80146 40.9574 1.62003 42.8442 2.70861L52.3148 8.15146ZM74.0292 53.8715L83.4998 48.4286V96.3257L102.332 85.44V37.5429L111.694 32.1V90.8829L102.332 96.3257V85.44C102.332 87.3269 101.897 89.3589 101.026 91.536C100.155 93.7132 98.9938 95.7452 97.5424 97.632C96.091 99.4463 94.5307 100.825 92.8615 101.769L83.4998 107.211C80.9598 108.663 78.7464 108.844 76.8595 107.756C74.9727 106.667 74.0292 104.671 74.0292 101.769V53.8715ZM102.332 85.44V96.3257L92.8615 90.8829V79.9972L102.332 85.44ZM111.694 32.1L102.332 37.5429L92.8615 32.1L102.332 26.6572L111.694 32.1ZM102.332 37.5429V85.44L92.8615 79.9972V32.1L102.332 37.5429ZM83.4998 48.4286L74.0292 53.8715L64.5587 48.4286L74.0292 42.9857L83.4998 48.4286ZM102.332 85.44L83.4998 96.3257L74.0292 90.8829L92.8615 79.9972L102.332 85.44ZM74.0292 53.8715V101.769C74.0292 104.671 74.9727 106.667 76.8595 107.756L67.389 102.313C65.5021 101.224 64.5587 99.2286 64.5587 96.3257V48.4286L74.0292 53.8715ZM140.054 44.0743L158.887 33.1886C161.354 31.7372 163.531 31.5557 165.418 32.6443C167.305 33.7329 168.248 35.7286 168.248 38.6315V54.96C168.248 56.8469 167.813 58.8789 166.942 61.056C166.071 63.2332 164.91 65.2652 163.459 67.152C162.08 68.9663 160.556 70.3452 158.887 71.2886L149.416 76.7315C146.949 78.1829 144.772 78.3643 142.885 77.2757C140.998 76.1872 140.054 74.1915 140.054 71.2886V96.3257L168.248 79.9972V90.8829L140.054 107.211C137.514 108.663 135.301 108.844 133.414 107.756C131.527 106.667 130.584 104.671 130.584 101.769V60.4029C130.584 58.4435 131.019 56.4115 131.89 54.3069C132.761 52.1297 133.922 50.134 135.374 48.3197C136.825 46.4329 138.385 45.0177 140.054 44.0743ZM158.887 44.0743L140.054 54.96V71.2886L158.887 60.4029V44.0743ZM168.248 79.9972L140.054 96.3257L130.584 90.8829L158.887 74.5543L168.248 79.9972ZM158.887 44.0743V60.4029L149.416 54.96V38.6315L158.887 44.0743ZM140.054 71.2886C140.054 74.1915 140.998 76.1872 142.885 77.2757L133.414 71.8329C131.527 70.7443 130.584 68.7486 130.584 65.8457L140.054 71.2886ZM158.887 60.4029L140.054 71.2886L130.584 65.8457L149.416 54.96L158.887 60.4029ZM165.418 32.6443C163.531 31.5557 161.354 31.7372 158.887 33.1886L140.054 44.0743C138.385 45.0177 136.825 46.4329 135.374 48.3197C133.922 50.134 132.761 52.1297 131.89 54.3069C131.019 56.4115 130.584 58.4435 130.584 60.4029V101.769C130.584 104.671 131.527 106.667 133.414 107.756L123.944 102.313C122.057 101.224 121.113 99.2286 121.113 96.3257V54.96C121.113 53.0006 121.549 50.9686 122.42 48.864C123.29 46.6869 124.452 44.6912 125.903 42.8769C127.354 40.99 128.915 39.5749 130.584 38.6315L149.416 27.7457C151.956 26.2943 154.17 26.1129 156.056 27.2015L165.418 32.6443ZM196.609 81.0857C194.069 82.5372 191.856 82.7186 189.969 81.63C188.082 80.5415 187.139 78.5457 187.139 75.6429V64.7572C187.139 62.7977 187.574 60.7657 188.445 58.6612C189.316 56.484 190.477 54.4883 191.928 52.674C193.38 50.7872 194.94 49.372 196.609 48.4286L224.803 32.1V42.9857L196.609 59.3143V70.2L215.441 59.3143C217.909 57.8629 220.086 57.6815 221.973 58.77C223.86 59.8586 224.803 61.8543 224.803 64.7572V75.6429C224.803 77.5297 224.368 79.5617 223.497 81.7389C222.626 83.916 221.465 85.948 220.013 87.8349C218.635 89.6492 217.111 91.028 215.441 91.9715L187.139 108.3V97.4143L215.441 81.0857V70.2L196.609 81.0857ZM215.441 70.2V81.0857L205.971 75.6429V64.7572L215.441 70.2ZM215.441 81.0857L187.139 97.4143L177.668 91.9715L205.971 75.6429L215.441 81.0857ZM187.139 97.4143V108.3L177.668 102.857V91.9715L187.139 97.4143ZM221.973 58.77C220.086 57.6815 217.909 57.8629 215.441 59.3143L196.609 70.2L187.139 64.7572L205.971 53.8715C208.511 52.42 210.724 52.2386 212.611 53.3272L221.973 58.77ZM224.803 32.1L196.609 48.4286C194.94 49.372 193.38 50.7872 191.928 52.674C190.477 54.4883 189.316 56.484 188.445 58.6612C187.574 60.7657 187.139 62.7977 187.139 64.7572V75.6429C187.139 78.5457 188.082 80.5415 189.969 81.63L180.498 76.1872C178.611 75.0986 177.668 73.1029 177.668 70.2V59.3143C177.668 57.3549 178.103 55.3229 178.974 53.2183C179.845 51.0412 181.006 49.0455 182.458 47.2312C183.909 45.3443 185.469 43.9292 187.139 42.9857L215.441 26.6572L224.803 32.1ZM250.551 62.0357L241.19 67.4786V56.5929L250.551 51.15V40.2643L260.022 34.8215V56.5929C260.022 54.6335 260.457 52.6015 261.328 50.4969C262.199 48.3197 263.324 46.324 264.703 44.5097C266.154 42.6229 267.714 41.2077 269.384 40.2643L278.854 34.8215V45.7072L260.022 56.5929V97.9586L278.854 87.0729V97.9586L260.022 108.844C257.482 110.296 255.268 110.477 253.382 109.389C251.495 108.3 250.551 106.304 250.551 103.401V62.0357ZM278.854 87.0729L260.022 97.9586L250.551 92.5157L269.384 81.63L278.854 87.0729ZM278.854 34.8215L269.384 40.2643C267.714 41.2077 266.154 42.6229 264.703 44.5097C263.324 46.324 262.199 48.3197 261.328 50.4969C260.457 52.6015 260.022 54.6335 260.022 56.5929L250.551 51.15C250.551 49.1906 250.987 47.1586 251.858 45.054C252.728 42.8769 253.89 40.8812 255.341 39.0669C256.792 37.18 258.353 35.7649 260.022 34.8215L269.384 29.3786L278.854 34.8215ZM250.551 51.15L241.19 56.5929L231.719 51.15L241.19 45.7072L250.551 51.15ZM250.551 62.0357V103.401C250.551 106.304 251.495 108.3 253.382 109.389L244.02 103.946C242.133 102.857 241.19 100.861 241.19 97.9586V56.5929L250.551 62.0357ZM260.022 34.8215L250.551 40.2643L241.19 34.8215L250.551 29.3786L260.022 34.8215ZM250.551 40.2643V51.15L241.19 45.7072V34.8215L250.551 40.2643ZM241.19 56.5929V67.4786L231.719 62.0357V51.15L241.19 56.5929ZM307.112 96.3257L321.155 88.1615V99.0472L307.112 107.211C304.572 108.663 302.359 108.844 300.472 107.756C298.585 106.667 297.641 104.671 297.641 101.769V21.2143L307.112 15.7715V96.3257ZM307.112 15.7715L297.641 21.2143L288.171 15.7715L297.641 10.3286L307.112 15.7715ZM321.155 88.1615L307.112 96.3257L297.641 90.8829L311.793 82.7186L321.155 88.1615ZM297.641 21.2143V101.769C297.641 104.671 298.585 106.667 300.472 107.756L291.001 102.313C289.114 101.224 288.171 99.2286 288.171 96.3257V15.7715L297.641 21.2143ZM349.528 93.06C346.988 94.5115 344.775 94.6929 342.888 93.6043C341.001 92.5157 340.057 90.52 340.057 87.6172V53.8715L349.528 48.4286V82.1743L368.36 71.2886V37.5429L377.722 32.1V90.8829C377.722 92.7697 377.287 94.8017 376.416 96.9789C375.545 99.156 374.384 101.152 372.932 102.966C371.553 104.853 370.029 106.268 368.36 107.211L340.057 123.54V112.654L368.36 96.3257V71.2886C368.36 73.1755 367.925 75.2075 367.054 77.3846C366.183 79.5617 365.022 81.5937 363.571 83.4806C362.119 85.2949 360.559 86.6737 358.89 87.6172L349.528 93.06ZM368.36 71.2886V96.3257L358.89 90.8829V65.8457L368.36 71.2886ZM368.36 96.3257L340.057 112.654L330.587 107.211L358.89 90.8829L368.36 96.3257ZM340.057 112.654V123.54L330.587 118.097V107.211L340.057 112.654ZM377.722 32.1L368.36 37.5429L358.89 32.1L368.36 26.6572L377.722 32.1ZM368.36 37.5429V71.2886L358.89 65.8457V32.1L368.36 37.5429ZM368.36 71.2886L349.528 82.1743L340.057 76.7315L358.89 65.8457L368.36 71.2886ZM349.528 48.4286L340.057 53.8715L330.587 48.4286L340.057 42.9857L349.528 48.4286ZM340.057 53.8715V87.6172C340.057 90.52 341.001 92.5157 342.888 93.6043L333.417 88.1615C331.53 87.0729 330.587 85.0772 330.587 82.1743V48.4286L340.057 53.8715Z" fill="url(#paint0_linear_3362_249)"/>
</g>
<defs>
<linearGradient id="paint0_linear_3362_249" x1="-31.75" y1="54.4286" x2="412.75" y2="54.4286" gradientUnits="userSpaceOnUse">
<stop offset="0.504808" stop-color="#942FCD"/>
<stop offset="1" stop-color="#CA9AF4"/>
</linearGradient>
<clipPath id="clip0_3362_249">
<rect width="381" height="127" rx="22.6786" fill="white"/>
</clipPath>
</defs>
</svg>
