<svg width="48" height="48" viewBox="0 0 48 48" fill="none" xmlns="http://www.w3.org/2000/svg">
<g filter="url(#filter0_i_3327_319)">
<rect width="48" height="48" rx="10" fill="url(#paint0_linear_3327_319)"/>
<path d="M22.944 19.32L29.856 15.32C30.5813 14.8933 31.2213 14.84 31.776 15.16C32.352 15.48 32.64 16.0667 32.64 16.92V32.28C32.64 32.8347 32.5013 33.432 32.224 34.072C31.968 34.712 31.6267 35.3093 31.2 35.864C30.7947 36.3973 30.3467 36.8027 29.856 37.08L34.304 34.52V37.72L22.944 44.28C22.1973 44.7067 21.5467 44.76 20.992 44.44C20.4373 44.12 20.16 43.5333 20.16 42.68V24.12C20.16 23.544 20.288 22.9467 20.544 22.328C20.8 21.688 21.1413 21.1013 21.568 20.568C21.9947 20.0133 22.4533 19.5973 22.944 19.32ZM29.856 37.08V18.52L22.944 22.52V41.08L29.856 37.08ZM34.304 34.52L29.856 37.08L27.072 35.48L31.52 32.92L34.304 34.52ZM29.856 37.08L22.944 41.08L20.16 39.48L27.072 35.48L29.856 37.08ZM29.856 18.52V37.08L27.072 35.48V16.92L29.856 18.52ZM31.808 15.16C31.232 14.84 30.5813 14.8933 29.856 15.32L22.944 19.32C22.4533 19.5973 21.9947 20.0133 21.568 20.568C21.1413 21.1013 20.8 21.688 20.544 22.328C20.288 22.9467 20.16 23.544 20.16 24.12V42.68C20.16 43.5333 20.4373 44.12 20.992 44.44L18.208 42.84C17.6533 42.52 17.376 41.9333 17.376 41.08V22.52C17.376 21.944 17.504 21.3467 17.76 20.728C18.016 20.088 18.3573 19.5013 18.784 18.968C19.2107 18.4133 19.6693 17.9973 20.16 17.72L27.072 13.72C27.8187 13.2933 28.4693 13.24 29.024 13.56L31.808 15.16Z" fill="white"/>
</g>
<defs>
<filter id="filter0_i_3327_319" x="0" y="0" width="48" height="52" filterUnits="userSpaceOnUse" color-interpolation-filters="sRGB">
<feFlood flood-opacity="0" result="BackgroundImageFix"/>
<feBlend mode="normal" in="SourceGraphic" in2="BackgroundImageFix" result="shape"/>
<feColorMatrix in="SourceAlpha" type="matrix" values="0 0 0 0 0 0 0 0 0 0 0 0 0 0 0 0 0 0 127 0" result="hardAlpha"/>
<feOffset dy="5"/>
<feGaussianBlur stdDeviation="2"/>
<feComposite in2="hardAlpha" operator="arithmetic" k2="-1" k3="1"/>
<feColorMatrix type="matrix" values="0 0 0 0 0 0 0 0 0 0 0 0 0 0 0 0 0 0 0.3 0"/>
<feBlend mode="normal" in2="shape" result="effect1_innerShadow_3327_319"/>
</filter>
<linearGradient id="paint0_linear_3327_319" x1="24" y1="0" x2="24" y2="48" gradientUnits="userSpaceOnUse">
<stop stop-color="#942FCD"/>
<stop offset="1" stop-color="#CA9AF4"/>
</linearGradient>
</defs>
</svg>
